<svg width="97" height="16" viewBox="0 0 97 16" fill="none" xmlns="http://www.w3.org/2000/svg">
<path d="M16.1722 0L8.56875 8.29132L0.965267 0H0.783691V15.8207H3.80239V7.35014L8.45527 12.3025H8.65954L13.3578 7.35014V15.8207H16.3765V0H16.1722Z" fill="#121212"/>
<path d="M18.1894 12.9748V15.8207H28.7435V12.9748H18.1894ZM27.9037 6.56583H18.1894V9.41177H27.9037V6.56583ZM28.6073 0.134453H18.1894V3.0028H28.6073V0.134453Z" fill="#121212"/>
<path d="M29.6189 0.134453V3.0028H41.1944V0.134453H29.6189ZM33.9087 15.8207H36.9274V5.33333H33.9087V15.8207Z" fill="#121212"/>
<path d="M48.3289 0.134453H42.4504V3.0028H48.2608C49.7815 3.0028 50.7347 3.94398 50.7347 5.28852C50.7347 6.63305 49.7815 7.59664 48.2608 7.59664H42.4504V15.8207H45.469V10.4426H48.3289C51.8696 10.4426 53.8442 8.15686 53.8442 5.28852C53.8442 2.42017 51.8696 0.134453 48.3289 0.134453Z" fill="#121212"/>
<path d="M58.1093 0.134453H55.0906V16H55.2949L64.3056 7.03641V15.8207H67.3243V0H67.12L58.1093 8.94118V0.134453Z" fill="#121212"/>
<path d="M78.092 15.8207H81.8597L76.7302 7.86555L81.5193 0.134453H78.2055L74.0293 6.54342H72.1681V0.134453H69.1494V15.8207H72.1681V9.38936H74.0974L78.092 15.8207Z" fill="#121212"/>
<path d="M90.9733 0.134453H87.8865L82.0761 15.8207H85.5033L89.4299 4.61625L93.3564 15.8207H96.7837L90.9733 0.134453Z" fill="#121212"/>
</svg>
