<svg width="50" height="50" viewBox="0 0 50 50" fill="none" xmlns="http://www.w3.org/2000/svg">
<path fill-rule="evenodd" clip-rule="evenodd" d="M39.2734 13.4401C39.4516 13.2621 39.5929 13.0508 39.6894 12.8183C39.7859 12.5857 39.8357 12.3364 39.8358 12.0846C39.836 11.8328 39.7866 11.5834 39.6903 11.3507C39.5941 11.118 39.453 10.9066 39.2751 10.7284C39.0971 10.5503 38.8858 10.4089 38.6533 10.3124C38.4207 10.2159 38.1714 10.1661 37.9196 10.166C37.6678 10.1658 37.4184 10.2153 37.1857 10.3115C36.953 10.4077 36.7416 10.5488 36.5634 10.7267L25.0001 22.2901L13.4401 10.7267C13.0803 10.3669 12.5923 10.1648 12.0834 10.1648C11.5746 10.1648 11.0866 10.3669 10.7267 10.7267C10.3669 11.0866 10.1648 11.5746 10.1648 12.0834C10.1648 12.5923 10.3669 13.0803 10.7267 13.4401L22.2901 25.0001L10.7267 36.5601C10.5486 36.7382 10.4073 36.9497 10.3108 37.1825C10.2144 37.4153 10.1648 37.6648 10.1648 37.9167C10.1648 38.1687 10.2144 38.4182 10.3108 38.651C10.4073 38.8837 10.5486 39.0952 10.7267 39.2734C11.0866 39.6332 11.5746 39.8354 12.0834 39.8354C12.3354 39.8354 12.5849 39.7857 12.8176 39.6893C13.0504 39.5929 13.2619 39.4516 13.4401 39.2734L25.0001 27.7101L36.5634 39.2734C36.9232 39.6328 37.4111 39.8345 37.9196 39.8342C38.4281 39.8339 38.9157 39.6316 39.2751 39.2717C39.6345 38.9119 39.8362 38.4241 39.8358 37.9156C39.8355 37.407 39.6332 36.9194 39.2734 36.5601L27.7101 25.0001L39.2734 13.4401Z" fill="black"/>
</svg>
